<?xml version="1.0" ?><!DOCTYPE svg  PUBLIC '-//W3C//DTD SVG 1.1//EN'  'http://www.w3.org/Graphics/SVG/1.1/DTD/svg11.dtd'><svg enable-background="new 0 0 64 64" height="64px" id="SANTA_CLAUS" version="1.1" viewBox="0 0 64 64" width="64px" xml:space="preserve" xmlns="http://www.w3.org/2000/svg" xmlns:xlink="http://www.w3.org/1999/xlink"><g id="SANTA_CLAUS_1_"><path d="M36.645,30.024c0.021,0.006,0.041,0.012,0.062,0.019c0.036,0.009,0.071,0.02,0.109,0.032   c0.212,0.056,0.438,0.124,0.667,0.198c1.027-1.134,2.411-1.882,3.91-2.141c-0.748-0.75-1.212-1.784-1.212-2.925   c0-3.884-3.813-7.043-8.5-7.043s-8.5,3.159-8.5,7.043c0,1.113-0.446,2.12-1.163,2.865c1.643,0.19,3.17,0.974,4.281,2.2   c0.239-0.078,0.482-0.151,0.729-0.218c0.025-0.006,0.002,0.002-0.046,0.024c0.05-0.022,0.102-0.041,0.155-0.056   c0.385-0.104,0.77-0.187,1.161-0.259c-0.063-0.269-0.103-0.545-0.103-0.832c0-2.037,1.657-3.694,3.695-3.694   s3.695,1.657,3.695,3.694c0,0.287-0.04,0.563-0.103,0.832C35.875,29.838,36.26,29.921,36.645,30.024z M27.391,25.333   c-0.829,0-1.5-0.671-1.5-1.5c0-0.828,0.671-1.497,1.5-1.497s1.5,0.669,1.5,1.497C28.891,24.662,28.22,25.333,27.391,25.333z    M34.891,23.833c0-0.828,0.671-1.497,1.5-1.497s1.5,0.669,1.5,1.497c0,0.829-0.671,1.5-1.5,1.5S34.891,24.662,34.891,23.833z" fill="#F1A9A0"/><path d="M21.181,25.208c0-4.986,4.71-9.043,10.5-9.043s10.5,4.057,10.5,9.043c0,1.183,0.962,2.145,2.145,2.145   s2.146-0.962,2.146-2.145c0-6.823-6.635-12.375-14.79-12.375s-14.79,5.552-14.79,12.375c0,1.183,0.962,2.145,2.145,2.145   S21.181,26.391,21.181,25.208z" fill="#FFFFFF"/><path d="M48.41,25.808c0.229-0.045,0.462-0.072,0.703-0.072c0.219-0.665,0.333-1.344,0.333-2.024   c0-2.839-1.705-5.383-4.517-7.301c2.211,2.435,3.541,5.482,3.541,8.798C48.471,25.413,48.439,25.61,48.41,25.808z" fill="#D64541"/><circle cx="31.891" cy="28.934" fill="#D64541" r="1.695"/><path d="M47.391,34.874c0-2.674-2.175-4.849-4.849-4.849c-1.545,0-3.009,0.75-3.914,2.008   c-0.263,0.362-0.734,0.51-1.159,0.353c-0.401-0.146-0.813-0.284-1.236-0.398c-0.056-0.015-0.103-0.027-0.146-0.042   c-0.37-0.099-0.738-0.182-1.117-0.245c-0.042-0.007-0.084-0.017-0.125-0.029c-0.093-0.018-0.154-0.03-0.21-0.046   c-0.057-0.009-0.132-0.018-0.196-0.026c-0.664,0.635-1.559,1.03-2.548,1.03c-0.985,0-1.876-0.393-2.539-1.023   c-0.1,0.015-0.198,0.022-0.297,0.04c0.047-0.009-0.026,0.009-0.086,0.02c-0.041,0.013-0.115,0.028-0.157,0.035   c-0.388,0.065-0.764,0.15-1.144,0.252c-0.037,0.012-0.073,0.022-0.099,0.028c-0.444,0.121-0.855,0.259-1.257,0.405   c-0.423,0.157-0.896,0.01-1.159-0.353c-0.905-1.258-2.369-2.008-3.915-2.008c-2.673,0-4.848,2.175-4.848,4.849   c0,0.793,0.195,1.576,0.567,2.267c0.157,0.294,0.158,0.646,0.003,0.94c-0.379,0.717-0.57,1.487-0.57,2.288   c0,1.896,1.122,3.63,2.858,4.419c0.369,0.167,0.601,0.54,0.586,0.945l-1.007,0.11l1,0.022c0,2.672,2.173,4.847,4.844,4.847   c0.805,0,1.593-0.197,2.279-0.571c0.318-0.174,0.704-0.161,1.009,0.03c0.068,0.042,0.146,0.106,0.212,0.174l0.097,0.101   c0.123,0.144,0.241,0.265,0.368,0.374c0.072,0.062,0.123,0.104,0.163,0.142l0.042,0.033c0.101,0.078,0.198,0.156,0.303,0.225   l0.142,0.103c0.178,0.113,0.354,0.217,0.543,0.304c0.045,0.015,0.059,0.021,0.102,0.042c0.144,0.071,0.305,0.122,0.462,0.176   l0.118,0.036l-0.179,0.988l0.276-0.961c0.152,0.044,0.295,0.068,0.442,0.095c0.104,0.023,0.147,0.029,0.187,0.035   c0.43,0.059,0.88,0.058,1.304,0.001c0.042-0.007,0.086-0.013,0.131-0.024c0.204-0.038,0.346-0.063,0.496-0.106l0.405,0.926   l-0.295-0.956l0.14-0.04c0.128-0.047,0.289-0.098,0.433-0.169c0.043-0.021,0.087-0.038,0.133-0.053   c0.158-0.076,0.334-0.18,0.515-0.291l0.112-0.086c0.131-0.087,0.232-0.167,0.336-0.249c0.019-0.015,0.077-0.065,0.138-0.115   c0.188-0.163,0.306-0.284,0.413-0.41c0.018-0.021,0.062-0.067,0.09-0.096c0.058-0.063,0.136-0.135,0.234-0.196   c0.307-0.191,0.691-0.204,1.009-0.03c0.687,0.374,1.475,0.571,2.279,0.571c2.674,0,4.849-2.175,4.849-4.849   c-0.006-0.033-0.011-0.082-0.012-0.131c-0.015-0.405,0.217-0.778,0.586-0.945c1.736-0.789,2.858-2.523,2.858-4.419   c0-0.811-0.192-1.577-0.573-2.278c-0.161-0.3-0.16-0.661,0.004-0.959C47.193,36.456,47.391,35.676,47.391,34.874z M37.144,36.184   c-0.404,0.041-0.823,0.063-1.253,0.063c-0.15,0-0.295-0.014-0.443-0.02c-0.315,1.1-1.713,1.856-3.557,1.856   s-3.241-0.757-3.557-1.856c-0.148,0.006-0.293,0.02-0.443,0.02c-0.43,0-0.849-0.022-1.253-0.063   c-0.549-0.057-0.948-0.548-0.893-1.098c0.057-0.55,0.547-0.933,1.098-0.893c1.607,0.166,3.451-0.088,4.594-0.669   c0.285-0.146,0.623-0.146,0.908,0c1.143,0.581,2.986,0.837,4.594,0.669c0.554-0.047,1.041,0.343,1.098,0.893   C38.092,35.636,37.692,36.127,37.144,36.184z" fill="#FFFFFF"/><circle cx="49.117" cy="29.43" fill="#FFFFFF" r="1.695"/><path d="M30.719,35.896c0.277,0.102,0.662,0.188,1.172,0.188s0.895-0.087,1.172-0.188   c-0.412-0.106-0.81-0.227-1.172-0.379C31.528,35.669,31.131,35.789,30.719,35.896z" fill="#D64541"/><path d="M28.891,23.833c0,0.829-0.671,1.5-1.5,1.5s-1.5-0.671-1.5-1.5c0-0.828,0.671-1.497,1.5-1.497   S28.891,23.005,28.891,23.833z M37.891,23.833c0-0.828-0.671-1.497-1.5-1.497s-1.5,0.669-1.5,1.497c0,0.829,0.671,1.5,1.5,1.5   S37.891,24.662,37.891,23.833z M38.036,35.086c0.056,0.55-0.344,1.041-0.893,1.098c-0.404,0.041-0.823,0.063-1.253,0.063   c-0.15,0-0.295-0.014-0.443-0.02c-0.315,1.1-1.713,1.856-3.557,1.856s-3.241-0.757-3.557-1.856c-0.148,0.006-0.293,0.02-0.443,0.02   c-0.43,0-0.849-0.022-1.253-0.063c-0.549-0.057-0.948-0.548-0.893-1.098c0.057-0.55,0.547-0.933,1.098-0.893   c1.607,0.166,3.451-0.088,4.594-0.669c0.285-0.146,0.623-0.146,0.908,0c1.143,0.581,2.986,0.837,4.594,0.669   C37.492,34.146,37.979,34.536,38.036,35.086z M33.063,35.896c-0.412-0.106-0.81-0.227-1.172-0.379   c-0.362,0.152-0.76,0.272-1.172,0.379c0.277,0.102,0.662,0.188,1.172,0.188S32.785,35.997,33.063,35.896z M49.154,33.121   c0.149,0.561,0.236,1.146,0.236,1.753c0,0.955-0.199,1.893-0.579,2.743c0.38,0.86,0.579,1.802,0.579,2.752   c0,2.459-1.333,4.724-3.447,5.939c-0.229,3.57-3.207,6.404-6.834,6.404c-0.875,0-1.739-0.167-2.537-0.486   c-0.042,0.038-0.085,0.076-0.129,0.113c0.001,0,0.002,0,0.002,0c0.003,0-0.047,0.042-0.097,0.083   c-0.035,0.038-0.057,0.055-0.098,0.086c-0.221,0.172-0.366,0.284-0.517,0.383c-0.005,0.004-0.123,0.092-0.128,0.096   c-0.311,0.194-0.559,0.337-0.822,0.457c-0.018,0.008-0.052,0.022-0.087,0.036c-0.21,0.101-0.439,0.181-0.666,0.258   c-0.022,0.007-0.083,0.026-0.105,0.032c-0.131,0.04-0.201,0.061-0.267,0.074c-0.151,0.048-0.361,0.088-0.577,0.126   c-0.043,0.012-0.143,0.028-0.23,0.042c-0.339,0.048-0.645,0.07-0.961,0.07s-0.622-0.022-0.922-0.064   c-0.127-0.02-0.227-0.036-0.328-0.06c-0.155-0.026-0.364-0.066-0.585-0.13c-0.008,0-0.072-0.02-0.14-0.04   c-0.022-0.006-0.105-0.031-0.128-0.038c-0.261-0.089-0.49-0.169-0.699-0.268c-0.028-0.012-0.055-0.022-0.069-0.028   c-0.286-0.131-0.534-0.273-0.787-0.43c-0.024-0.015-0.118-0.082-0.142-0.1c-0.192-0.131-0.336-0.241-0.481-0.355   c-0.041-0.032-0.158-0.128-0.193-0.166c-0.037-0.025-0.091-0.07-0.143-0.124c-0.021-0.017-0.041-0.034-0.063-0.055   c-0.799,0.32-1.663,0.487-2.538,0.487c-3.623,0-6.599-2.833-6.829-6.401c-2.116-1.215-3.452-3.481-3.452-5.942   c0-0.941,0.198-1.883,0.576-2.752c-0.379-0.858-0.576-1.797-0.576-2.743c0-2.439,1.286-4.579,3.211-5.792   c-1.578-0.587-2.711-2.095-2.711-3.874c0-7.927,7.532-14.375,16.79-14.375c11.269,0,19.766,5.536,19.766,12.878   c0,0.87-0.144,1.732-0.413,2.575c1.063,0.65,1.779,1.811,1.779,3.144C52.813,31.455,51.175,33.101,49.154,33.121z M44.93,16.41   c2.211,2.435,3.541,5.482,3.541,8.798c0,0.205-0.031,0.402-0.061,0.6c0.229-0.045,0.462-0.072,0.703-0.072   c0.219-0.665,0.333-1.344,0.333-2.024C49.446,20.872,47.741,18.328,44.93,16.41z M19.035,27.353c1.183,0,2.146-0.962,2.146-2.145   c0-4.986,4.71-9.043,10.5-9.043s10.5,4.057,10.5,9.043c0,1.183,0.962,2.145,2.145,2.145s2.146-0.962,2.146-2.145   c0-6.823-6.635-12.375-14.79-12.375s-14.79,5.552-14.79,12.375C16.891,26.391,17.853,27.353,19.035,27.353z M35.586,28.934   c0,0.287-0.04,0.563-0.103,0.832c0.392,0.072,0.776,0.155,1.161,0.259c0.021,0.006,0.041,0.012,0.062,0.019   c0.036,0.009,0.071,0.02,0.109,0.032c0.212,0.056,0.438,0.124,0.667,0.198c1.027-1.134,2.411-1.882,3.91-2.141   c-0.748-0.75-1.212-1.784-1.212-2.925c0-3.884-3.813-7.043-8.5-7.043s-8.5,3.159-8.5,7.043c0,1.113-0.446,2.12-1.163,2.865   c1.643,0.19,3.17,0.974,4.281,2.2c0.239-0.078,0.482-0.151,0.729-0.218c0.025-0.006,0.002,0.002-0.046,0.024   c0.05-0.022,0.102-0.041,0.155-0.056c0.385-0.104,0.77-0.187,1.161-0.259c-0.063-0.269-0.103-0.545-0.103-0.832   c0-2.037,1.657-3.694,3.695-3.694S35.586,26.896,35.586,28.934z M31.891,27.239c-0.935,0-1.695,0.76-1.695,1.694   s0.761,1.695,1.695,1.695s1.695-0.761,1.695-1.695S32.825,27.239,31.891,27.239z M46.821,37.132   c0.372-0.676,0.569-1.456,0.569-2.258c0-2.674-2.175-4.849-4.849-4.849c-1.545,0-3.009,0.75-3.914,2.008   c-0.263,0.362-0.734,0.51-1.159,0.353c-0.401-0.146-0.813-0.284-1.236-0.398c-0.056-0.015-0.103-0.027-0.146-0.042   c-0.37-0.099-0.738-0.182-1.117-0.245c-0.042-0.007-0.084-0.017-0.125-0.029c-0.093-0.018-0.154-0.03-0.21-0.046   c-0.057-0.009-0.132-0.018-0.196-0.026c-0.664,0.635-1.559,1.03-2.548,1.03c-0.985,0-1.876-0.393-2.539-1.023   c-0.1,0.015-0.198,0.022-0.297,0.04c0.047-0.009-0.026,0.009-0.086,0.02c-0.041,0.013-0.115,0.028-0.157,0.035   c-0.388,0.065-0.764,0.15-1.144,0.252c-0.037,0.012-0.073,0.022-0.099,0.028c-0.444,0.121-0.855,0.259-1.257,0.405   c-0.423,0.157-0.896,0.01-1.159-0.353c-0.905-1.258-2.369-2.008-3.915-2.008c-2.673,0-4.848,2.175-4.848,4.849   c0,0.793,0.195,1.576,0.567,2.267c0.157,0.294,0.158,0.646,0.003,0.94c-0.379,0.717-0.57,1.487-0.57,2.288   c0,1.896,1.122,3.63,2.858,4.419c0.369,0.167,0.601,0.54,0.586,0.945l-1.007,0.11l1,0.022c0,2.672,2.173,4.847,4.844,4.847   c0.805,0,1.593-0.197,2.279-0.571c0.318-0.174,0.704-0.161,1.009,0.03c0.068,0.042,0.146,0.106,0.212,0.174l0.097,0.101   c0.123,0.144,0.241,0.265,0.368,0.374c0.072,0.062,0.123,0.104,0.163,0.142l0.042,0.033c0.101,0.078,0.198,0.156,0.303,0.225   l0.142,0.103c0.178,0.113,0.354,0.217,0.543,0.304c0.045,0.015,0.059,0.021,0.102,0.042c0.144,0.071,0.305,0.122,0.462,0.176   l0.118,0.036l-0.179,0.988l0.276-0.961c0.152,0.044,0.295,0.068,0.442,0.095c0.104,0.023,0.147,0.029,0.187,0.035   c0.43,0.059,0.88,0.058,1.304,0.001c0.042-0.007,0.086-0.013,0.131-0.024c0.204-0.038,0.346-0.063,0.496-0.106l0.405,0.926   l-0.295-0.956l0.14-0.04c0.128-0.047,0.289-0.098,0.433-0.169c0.043-0.021,0.087-0.038,0.133-0.053   c0.158-0.076,0.334-0.18,0.515-0.291l0.112-0.086c0.131-0.087,0.232-0.167,0.336-0.249c0.019-0.015,0.077-0.065,0.138-0.115   c0.188-0.163,0.306-0.284,0.413-0.41c0.018-0.021,0.062-0.067,0.09-0.096c0.058-0.063,0.136-0.135,0.234-0.196   c0.307-0.191,0.691-0.204,1.009-0.03c0.687,0.374,1.475,0.571,2.279,0.571c2.674,0,4.849-2.175,4.849-4.849   c-0.006-0.033-0.011-0.082-0.012-0.131c-0.015-0.405,0.217-0.778,0.586-0.945c1.736-0.789,2.858-2.523,2.858-4.419   c0-0.811-0.192-1.577-0.573-2.278C46.656,37.791,46.657,37.43,46.821,37.132z M50.813,29.43c0-0.935-0.761-1.694-1.695-1.694   s-1.695,0.76-1.695,1.694s0.761,1.695,1.695,1.695S50.813,30.364,50.813,29.43z" fill="#26251D"/></g></svg>