<?xml version="1.0" ?><!DOCTYPE svg  PUBLIC '-//W3C//DTD SVG 1.1//EN'  'http://www.w3.org/Graphics/SVG/1.1/DTD/svg11.dtd'><svg enable-background="new 0 0 64 64" height="64px" id="BALL" version="1.1" viewBox="0 0 64 64" width="64px" xml:space="preserve" xmlns="http://www.w3.org/2000/svg" xmlns:xlink="http://www.w3.org/1999/xlink"><g id="BALL_1_"><rect fill="#F5D76E" height="2.072" width="3.375" x="30.313" y="15.279"/><path d="M30.414,29.541c4.546-3.288,10.424-4.091,15.634-2.3c-2.906-4.724-8.107-7.89-14.048-7.89   c-7.555,0-13.925,5.111-15.874,12.052C20.866,33.217,26.283,32.528,30.414,29.541z" fill="#D64541"/><path d="M31.586,31.162c-2.959,2.14-6.502,3.241-10.064,3.241c-1.966,0-3.931-0.356-5.813-1.037   c-0.124,0.813-0.208,1.639-0.208,2.485c0,2.067,0.399,4.038,1.096,5.863c5.039,2.604,11.203,2.164,15.818-1.174   c4.604-3.332,10.582-4.14,15.881-2.222c0.122-0.807,0.205-1.627,0.205-2.468c0-2.067-0.398-4.038-1.096-5.863   C42.365,27.385,36.201,27.825,31.586,31.162z" fill="#4DAF7C"/><path d="M33.586,42.162c-2.97,2.147-6.509,3.238-10.058,3.238c-1.884,0-3.768-0.314-5.574-0.935   c2.906,4.721,8.107,7.886,14.046,7.886c7.556,0,13.926-5.111,15.874-12.054C43.131,38.48,37.729,39.165,33.586,42.162z" fill="#D64541"/><path d="M49.19,29.058c-0.013-0.054-0.034-0.102-0.056-0.153c-2.305-5.663-7.327-9.938-13.447-11.182v-3.443   c0-0.441-0.29-0.804-0.688-0.937v-0.694c0-1.654-1.346-3-3-3s-3,1.346-3,3v0.694c-0.396,0.133-0.688,0.496-0.688,0.937v3.443   c-8.44,1.714-14.813,9.19-14.813,18.129c0,2.399,0.474,4.688,1.309,6.793c0.013,0.055,0.035,0.104,0.057,0.155   C17.62,49.565,24.257,54.352,32,54.352c10.201,0,18.5-8.299,18.5-18.5C50.5,33.451,50.026,31.164,49.19,29.058z M15.5,35.852   c0-0.847,0.084-1.672,0.208-2.485c1.883,0.681,3.848,1.037,5.813,1.037c3.563,0,7.105-1.102,10.064-3.241   c4.615-3.337,10.779-3.777,15.818-1.174c0.697,1.825,1.096,3.796,1.096,5.863c0,0.841-0.083,1.661-0.205,2.468   c-5.299-1.918-11.276-1.11-15.881,2.222c-4.615,3.338-10.779,3.777-15.818,1.174C15.899,39.89,15.5,37.919,15.5,35.852z M32,11.648   c0.552,0,1,0.449,1,1v0.631h-2v-0.631C31,12.097,31.448,11.648,32,11.648z M30.313,17.352v-2.072h3.375v2.072H30.313z M32,19.352   c5.94,0,11.142,3.166,14.048,7.89c-5.21-1.791-11.088-0.988-15.634,2.3c-4.131,2.987-9.548,3.676-14.288,1.862   C18.075,24.463,24.445,19.352,32,19.352z M32,52.352c-5.938,0-11.14-3.165-14.046-7.886c1.807,0.62,3.69,0.935,5.574,0.935   c3.549,0,7.088-1.091,10.058-3.238c4.144-2.997,9.545-3.682,14.288-1.864C45.926,47.24,39.556,52.352,32,52.352z" fill="#26251D"/></g></svg>