<?xml version="1.0" ?><!DOCTYPE svg  PUBLIC '-//W3C//DTD SVG 1.1//EN'  'http://www.w3.org/Graphics/SVG/1.1/DTD/svg11.dtd'><svg enable-background="new 0 0 64 64" height="64px" id="WREATH" version="1.1" viewBox="0 0 64 64" width="64px" xml:space="preserve" xmlns="http://www.w3.org/2000/svg" xmlns:xlink="http://www.w3.org/1999/xlink"><g id="WREATH_1_"><path d="M32.001,8.15c-12.412,0-22.475,10.063-22.475,22.476c0,6.392,2.672,12.155,6.955,16.247   c0-0.003,0-0.005,0-0.008c0-4.374,2.202-6.781,6.372-7.007c-2.378-2.356-3.853-5.622-3.853-9.232c0-7.179,5.822-13.001,13-13.001   c7.179,0,13,5.822,13,13.001c0,3.614-1.479,6.883-3.861,9.239c4.176,0.223,6.381,2.631,6.381,7.008   c4.283-4.093,6.955-9.856,6.955-16.247C54.476,18.213,44.413,8.15,32.001,8.15z" fill="#4DAF7C"/><path d="M35.467,50.459c1.507,0.942,3.19,1.441,5.028,1.441c3.476,0,5.025-1.551,5.025-5.027   c0-3.479-1.55-5.029-5.025-5.029c-1.838,0-3.521,0.5-5.028,1.443c0.026,0.174,0.054,0.35,0.054,0.531v6.107   C35.521,50.108,35.493,50.283,35.467,50.459z" fill="#D64541"/><path d="M31.997,51.449c0.84,0,1.523-0.684,1.523-1.523v-6.107c0-0.84-0.684-1.523-1.523-1.523   s-1.523,0.684-1.523,1.523v6.107C30.474,50.766,31.157,51.449,31.997,51.449z" fill="#D64541"/><path d="M23.509,51.893c1.833,0,3.514-0.498,5.019-1.438c-0.026-0.174-0.054-0.348-0.054-0.529v-6.107   c0-0.186,0.027-0.365,0.055-0.543c-1.505-0.941-3.187-1.439-5.02-1.439c-3.477,0-5.027,1.551-5.027,5.029   C18.481,50.342,20.032,51.893,23.509,51.893z" fill="#D64541"/><circle cx="32.081" cy="13.906" fill="#D64541" r="2"/><circle cx="21.568" cy="17.623" fill="#D64541" r="2"/><circle cx="42.466" cy="17.623" fill="#D64541" r="2"/><circle cx="16.124" cy="35.142" fill="#D64541" r="2"/><circle cx="47.876" cy="35.142" fill="#D64541" r="2"/><circle cx="15.941" cy="26.143" fill="#D64541" r="2"/><circle cx="48.12" cy="26.143" fill="#D64541" r="2"/><path d="M40.495,39.844c-2.143,0-4.124,0.544-5.903,1.61c-0.646-0.707-1.564-1.159-2.595-1.159   c-1.026,0-1.943,0.448-2.588,1.151c-1.779-1.066-3.759-1.61-5.9-1.61c-4.598,0-7.027,2.431-7.027,7.029   c0,4.598,2.43,7.027,7.027,7.027c2.139,0,4.116-0.541,5.893-1.604c0.646,0.707,1.565,1.16,2.596,1.16   c1.029,0,1.949-0.452,2.594-1.159c1.78,1.066,3.762,1.61,5.904,1.61c4.596,0,7.025-2.43,7.025-7.027   C47.521,42.274,45.091,39.844,40.495,39.844z M23.509,51.893c-3.477,0-5.027-1.551-5.027-5.027c0-3.479,1.551-5.029,5.027-5.029   c1.833,0,3.515,0.498,5.02,1.439c-0.027,0.178-0.055,0.357-0.055,0.543v6.107c0,0.182,0.027,0.355,0.054,0.529   C27.022,51.395,25.342,51.893,23.509,51.893z M33.521,49.926c0,0.84-0.684,1.523-1.523,1.523s-1.523-0.684-1.523-1.523v-6.107   c0-0.84,0.684-1.523,1.523-1.523s1.523,0.684,1.523,1.523V49.926z M40.495,51.9c-1.838,0-3.521-0.499-5.028-1.441   c0.026-0.176,0.054-0.351,0.054-0.533v-6.107c0-0.182-0.027-0.357-0.054-0.531c1.507-0.943,3.19-1.443,5.028-1.443   c3.476,0,5.025,1.551,5.025,5.029C45.521,50.35,43.971,51.9,40.495,51.9z M54.476,30.626c0,6.391-2.672,12.154-6.955,16.247   c0-0.956-0.111-1.813-0.318-2.579c3.266-3.629,5.273-8.413,5.273-13.668c0-11.29-9.185-20.476-20.475-20.476   s-20.475,9.186-20.475,20.476c0,5.254,2.007,10.037,5.272,13.666c-0.207,0.765-0.317,1.619-0.317,2.573c0,0.003,0,0.005,0,0.008   c-4.283-4.092-6.955-9.855-6.955-16.247c0-12.413,10.063-22.476,22.475-22.476S54.476,18.213,54.476,30.626z M19.001,30.626   c0-7.179,5.822-13.001,13-13.001c7.179,0,13,5.822,13,13.001c0,3.614-1.479,6.883-3.861,9.239   c-0.211-0.011-0.423-0.021-0.645-0.021c-1.164,0-2.275,0.175-3.338,0.492c3.473-1.852,5.844-5.508,5.844-9.71   c0-6.065-4.935-11.001-11-11.001s-11,4.936-11,11.001c0,4.18,2.344,7.82,5.785,9.682c-1.044-0.306-2.136-0.472-3.277-0.472   c-0.225,0-0.44,0.011-0.655,0.022C20.476,37.502,19.001,34.236,19.001,30.626z" fill="#26251D"/></g></svg>